<svg xmlns="http://www.w3.org/2000/svg" xmlns:xlink="http://www.w3.org/1999/xlink" version="1.1" x="0px" y="0px" viewBox="0 0 24 30" style="enable-background:new 0 0 24 24;" fill="var(--gin-color-text)" xml:space="preserve"><g><path d="M21,22H3c-0.55,0-1-0.45-1-1c0-3.84,2.22-7.31,5.58-8.96C6.58,10.95,6,9.51,6,8c0-3.31,2.69-6,6-6s6,2.69,6,6   c0,1.51-0.58,2.95-1.58,4.04C19.78,13.69,22,17.16,22,21C22,21.55,21.55,22,21,22z M4.06,20h15.87c-0.4-3.15-2.66-5.82-5.77-6.69   c-0.39-0.11-0.67-0.44-0.72-0.84c-0.05-0.4,0.15-0.79,0.5-0.99C15.21,10.76,16,9.43,16,8c0-2.21-1.79-4-4-4S8,5.79,8,8   c0,1.43,0.79,2.76,2.06,3.47c0.35,0.2,0.55,0.59,0.5,0.99c-0.05,0.4-0.33,0.73-0.72,0.84C6.73,14.18,4.46,16.85,4.06,20z"/></g></svg>