<svg xmlns="http://www.w3.org/2000/svg" viewBox="0 0 32 40" x="0px" y="0px" fill="var(--gin-color-text)"><title>Location</title><g><path d="M16,19a6,6,0,1,0-6-6A6,6,0,0,0,16,19ZM16,9a4,4,0,1,1-4,4A4,4,0,0,1,16,9Zm5.22,14.29C24,20.75,27,17.08,27,13A11,11,0,0,0,5,13c0,4.08,3,7.75,5.78,10.29A3.26,3.26,0,0,0,9,26c0,2.28,3,4,7,4s7-1.72,7-4A3.26,3.26,0,0,0,21.22,23.29ZM7,13a9,9,0,0,1,18,0c0,5.48-7,10.5-9,11.81C14,23.5,7,18.48,7,13Zm9,15c-3.05,0-5-1.18-5-2,0-.37.44-.89,1.41-1.32a30.68,30.68,0,0,0,3.08,2.18,1,1,0,0,0,1,0,30.68,30.68,0,0,0,3.08-2.18c1,.43,1.41.95,1.41,1.32C21,26.82,19.05,28,16,28Z"/></g></svg>