<svg xmlns="http://www.w3.org/2000/svg" viewBox="0 0 24 30" fill="none" x="0px" y="0px">
    <path d="M15.7474 12.6644C16.1143 12.2516 16.0771 11.6195 15.6644 11.2526C15.2516 10.8857 14.6195 10.9229 14.2526 11.3356L10.9572 15.043L9.70711 13.7929C9.31658 13.4024 8.68342 13.4024 8.29289 13.7929C7.90237 14.1834 7.90237 14.8166 8.29289 15.2071L10.2929 17.2071C10.4876 17.4019 10.7541 17.5077 11.0294 17.4996C11.3047 17.4915 11.5644 17.3702 11.7474 17.1644L15.7474 12.6644Z" fill="var(--gin-color-text)"/>
    <path fill-rule="evenodd" clip-rule="evenodd" d="M8 2C8 1.44772 7.55228 1 7 1C6.44772 1 6 1.44772 6 2V3H4C2.89543 3 2 3.89543 2 5V20C2 21.1046 2.89543 22 4 22H20C21.1046 22 22 21.1046 22 20V5C22 3.89543 21.1046 3 20 3H18V2C18 1.44772 17.5523 1 17 1C16.4477 1 16 1.44772 16 2V3H8V2ZM17 6C16.4477 6 16 5.55228 16 5H8C8 5.55228 7.55228 6 7 6C6.44772 6 6 5.55228 6 5H4V8H20V5H18C18 5.55228 17.5523 6 17 6ZM4 20V10H20V20H4Z" fill="var(--gin-color-text)"/>
</svg>
