<svg version="1.1" fill="var(--gin-color-text)" xmlns="http://www.w3.org/2000/svg" xmlns:xlink="http://www.w3.org/1999/xlink" x="0px" y="0px"
	 viewBox="0 0 22 28" style="enable-background:new 0 0 22 28;" xml:space="preserve">
<g>
	<path d="M11,17c3.3,0,6-2.7,6-6s-2.7-6-6-6s-6,2.7-6,6S7.7,17,11,17z M11,7c2.2,0,4,1.8,4,4s-1.8,4-4,4s-4-1.8-4-4S8.8,7,11,7z
		 M16.2,21.3C19,18.8,22,15.1,22,11c0-6.1-4.9-11-11-11S0,4.9,0,11c0,4.1,3,7.8,5.8,10.3c-1,0.5-1.7,1.6-1.8,2.7c0,2.3,3,4,7,4
		s7-1.7,7-4C17.9,22.8,17.3,21.8,16.2,21.3z M2,11c0-5,4-9,9-9s9,4,9,9c0,5.5-7,10.5-9,11.8C9,21.5,2,16.5,2,11z M11,26
		c-3.1,0-5-1.2-5-2c0-0.4,0.4-0.9,1.4-1.3c1,0.8,2,1.5,3.1,2.2c0.3,0.2,0.7,0.2,1,0c1.1-0.7,2.1-1.4,3.1-2.2c1,0.4,1.4,1,1.4,1.3
		C16,24.8,14,26,11,26z"/>
</g>
</svg>
