<svg version="1.1" fill="var(--gin-color-text)" xmlns="http://www.w3.org/2000/svg" xmlns:xlink="http://www.w3.org/1999/xlink" x="0px" y="0px"
	 viewBox="0 0 15 16" style="enable-background:new 0 0 15 16;" xml:space="preserve">
<g>
	<path d="M7,13.1c-0.8,0.3-1.2,1.1-0.9,1.9c0.3,0.8,1.1,1.2,1.9,0.9c0.8-0.3,1.2-1.1,0.9-1.9c-0.2-0.4-0.5-0.8-0.9-0.9V11h2.5
		c1.2,0,2.3,0.9,2.5,2.1c-0.8,0.3-1.2,1.2-0.9,1.9c0.3,0.8,1.2,1.2,1.9,0.9c0.8-0.3,1.2-1.2,0.9-1.9c-0.2-0.4-0.5-0.8-0.9-0.9
		c-0.2-1.8-1.7-3.1-3.5-3.1H8V7h2c1.1,0,2-0.9,2-2V2c0-1.1-0.9-2-2-2H5C3.9,0,3,0.9,3,2v3c0,1.1,0.9,2,2,2h2v3H4.5
		c-1.8,0-3.2,1.3-3.5,3.1c-0.8,0.3-1.2,1.1-1,1.9c0.3,0.8,1.1,1.2,1.9,1c0.8-0.3,1.2-1.1,1-1.9c-0.1-0.4-0.5-0.8-0.9-0.9
		C2.2,11.9,3.3,11,4.5,11H7V13.1z M8,14.5C8,14.8,7.8,15,7.5,15S7,14.8,7,14.5S7.2,14,7.5,14C7.8,14,8,14.2,8,14.5z M14,14.5
		c0,0.3-0.2,0.5-0.5,0.5S13,14.8,13,14.5s0.2-0.5,0.5-0.5C13.8,14,14,14.2,14,14.5z M5,6C4.4,6,4,5.6,4,5V2c0-0.6,0.4-1,1-1h5
		c0.6,0,1,0.4,1,1v3c0,0.6-0.4,1-1,1H5z M2,14.5C2,14.8,1.8,15,1.5,15S1,14.8,1,14.5S1.2,14,1.5,14C1.8,14,2,14.2,2,14.5z"/>
</g>
</svg>
